999
dxfrw 0.6.3
  0
SECTION
  2
HEADER
  9
$ACADVER
  1
AC1021
  9
$DWGCODEPAGE
  3
ANSI_1252
  9
$INSBASE
 10
0
 20
0
 30
0
  9
$EXTMIN
 10
-49.761349
 20
-40.745753
 30
0
  9
$EXTMAX
 10
38.149141
 20
39.487161
 30
0
  9
$LIMMIN
 10
0
 20
0
  9
$LIMMAX
 10
420
 20
297
  9
$ORTHOMODE
 70
    0
  9
$REGENMODE
 70
    1
  9
$FILLMODE
 70
    1
  9
$QTEXTMODE
 70
    0
  9
$MIRRTEXT
 70
    0
  9
$LTSCALE
 40
1
  9
$ATTMODE
 70
    0
  9
$TEXTSIZE
 40
2.5
  9
$TRACEWID
 40
15.68
  9
$TEXTSTYLE
  7
STANDARD
  9
$CLAYER
  8
0
  9
$CELTYPE
  6
BYLAYER
  9
$CECOLOR
 62
  256
  9
$CELTSCALE
 40
1
  9
$DISPSILH
 70
    0
  9
$DIMSCALE
 40
2.5
  9
$DIMASZ
 40
2.5
  9
$DIMEXO
 40
0.625
  9
$DIMDLI
 40
3.75
  9
$DIMRND
 40
0
  9
$DIMDLE
 40
0
  9
$DIMEXE
 40
1.25
  9
$DIMTP
 40
0
  9
$DIMTM
 40
0
  9
$DIMTXT
 40
2.5
  9
$DIMCEN
 40
2.5
  9
$DIMTSZ
 40
0
  9
$DIMTOL
 70
    0
  9
$DIMLIM
 70
    0
  9
$DIMTIH
 70
    0
  9
$DIMTOH
 70
    0
  9
$DIMSE1
 70
    0
  9
$DIMSE2
 70
    0
  9
$DIMTAD
 70
    1
  9
$DIMZIN
 70
    8
  9
$DIMBLK
  1

  9
$DIMASO
 70
    1
  9
$DIMSHO
 70
    1
  9
$DIMPOST
  1

  9
$DIMAPOST
  1

  9
$DIMALT
 70
    0
  9
$DIMALTD
 70
    3
  9
$DIMALTF
 40
0.03937
  9
$DIMLFAC
 40
1
  9
$DIMTOFL
 70
    1
  9
$DIMTVP
 40
0
  9
$DIMTIX
 70
    0
  9
$DIMSOXD
 70
    0
  9
$DIMSAH
 70
    0
  9
$DIMBLK1
  1

  9
$DIMBLK2
  1

  9
$DIMSTYLE
  2
Standard
  9
$DIMCLRD
 70
    0
  9
$DIMCLRE
 70
    0
  9
$DIMCLRT
 70
    0
  9
$DIMTFAC
 40
1
  9
$DIMGAP
 40
0.625
  9
$DIMJUST
 70
    0
  9
$DIMSD1
 70
    0
  9
$DIMSD2
 70
    0
  9
$DIMTOLJ
 70
    0
  9
$DIMTZIN
 70
    8
  9
$DIMALTZ
 70
    0
  9
$DIMALTTZ
 70
    0
  9
$DIMUPT
 70
    0
  9
$DIMDEC
 70
    2
  9
$DIMTDEC
 70
    2
  9
$DIMALTU
 70
    2
  9
$DIMALTTD
 70
    3
  9
$DIMTXSTY
  7
STANDARD
  9
$DIMAUNIT
 70
    0
  9
$DIMADEC
 70
    0
  9
$DIMALTRND
 40
0
  9
$DIMAZIN
 70
    0
  9
$DIMDSEP
 70
   44
  9
$DIMATFIT
 70
    3
  9
$DIMFRAC
 70
    0
  9
$DIMLDRBLK
  1
STANDARD
  9
$DIMLUNIT
 70
    2
  9
$DIMLWD
 70
   -2
  9
$DIMLWE
 70
   -2
  9
$DIMTMOVE
 70
    0
  9
$DIMFXL
 40
1
  9
$DIMFXLON
 70
    0
  9
$DIMJOGANG
 40
0.7854
  9
$DIMTFILL
 70
    0
  9
$DIMTFILLCLR
 70
    0
  9
$DIMARCSYM
 70
    0
  9
$DIMLTYPE
  6

  9
$DIMLTEX1
  6

  9
$DIMLTEX2
  6

  9
$LUNITS
 70
    2
  9
$LUPREC
 70
    4
  9
$SKETCHINC
 40
1
  9
$FILLETRAD
 40
0
  9
$AUNITS
 70
    0
  9
$AUPREC
 70
    2
  9
$MENU
  1
.
  9
$ELEVATION
 40
0
  9
$PELEVATION
 40
0
  9
$THICKNESS
 40
0
  9
$LIMCHECK
 70
    0
  9
$CHAMFERA
 40
0
  9
$CHAMFERB
 40
0
  9
$CHAMFERC
 40
0
  9
$CHAMFERD
 40
0
  9
$SKPOLY
 70
    0
  9
$USRTIMER
 70
    1
  9
$ANGBASE
 50
0
  9
$ANGDIR
 70
    0
  9
$PDMODE
 70
   34
  9
$PDSIZE
 40
0
  9
$PLINEWID
 40
0
  9
$SPLFRAME
 70
    0
  9
$SPLINETYPE
 70
    2
  9
$SPLINESEGS
 70
    8
  9
$HANDSEED
  5
20000
  9
$SURFTAB1
 70
    6
  9
$SURFTAB2
 70
    6
  9
$SURFTYPE
 70
    6
  9
$SURFU
 70
    6
  9
$SURFV
 70
    6
  9
$UCSBASE
  2

  9
$UCSNAME
  2

  9
$UCSORG
 10
0
 20
0
 30
0
  9
$UCSXDIR
 10
1
 20
0
 30
0
  9
$UCSYDIR
 10
0
 20
1
 30
0
  9
$UCSORTHOREF
  2

  9
$UCSORTHOVIEW
 70
    0
  9
$UCSORGTOP
 10
0
 20
0
 30
0
  9
$UCSORGBOTTOM
 10
0
 20
0
 30
0
  9
$UCSORGLEFT
 10
0
 20
0
 30
0
  9
$UCSORGRIGHT
 10
0
 20
0
 30
0
  9
$UCSORGFRONT
 10
0
 20
0
 30
0
  9
$UCSORGBACK
 10
0
 20
0
 30
0
  9
$PUCSBASE
  2

  9
$PUCSNAME
  2

  9
$PUCSORG
 10
0
 20
0
 30
0
  9
$PUCSXDIR
 10
1
 20
0
 30
0
  9
$PUCSYDIR
 10
0
 20
1
 30
0
  9
$PUCSORTHOREF
  2

  9
$PUCSORTHOVIEW
 70
    0
  9
$PUCSORGTOP
 10
0
 20
0
 30
0
  9
$PUCSORGBOTTOM
 10
0
 20
0
 30
0
  9
$PUCSORGLEFT
 10
0
 20
0
 30
0
  9
$PUCSORGRIGHT
 10
0
 20
0
 30
0
  9
$PUCSORGFRONT
 10
0
 20
0
 30
0
  9
$PUCSORGBACK
 10
0
 20
0
 30
0
  9
$USERI1
 70
    0
  9
$USERI2
 70
    0
  9
$USERI3
 70
    0
  9
$USERI4
 70
    0
  9
$USERI5
 70
    0
  9
$USERR1
 40
0
  9
$USERR2
 40
0
  9
$USERR3
 40
0
  9
$USERR4
 40
0
  9
$USERR5
 40
0
  9
$WORLDVIEW
 70
    1
  9
$SHADEDGE
 70
    3
  9
$SHADEDIF
 70
   70
  9
$TILEMODE
 70
    1
  9
$MAXACTVP
 70
   64
  9
$PINSBASE
 10
0
 20
0
 30
0
  9
$PLIMCHECK
 70
    0
  9
$PEXTMIN
 10
0
 20
0
 30
0
  9
$PEXTMAX
 10
0
 20
0
 30
0
  9
$SNAPSTYLE
 70
    0
  9
$PLIMMIN
 10
0
 20
0
  9
$PLIMMAX
 10
210
 20
297
  9
$UNITMODE
 70
    0
  9
$VISRETAIN
 70
    1
  9
$PLINEGEN
 70
    0
  9
$PSLTSCALE
 70
    1
  9
$TREEDEPTH
 70
 3020
  9
$CMLSTYLE
  2
Standard
  9
$CMLJUST
 70
    0
  9
$CMLSCALE
 40
20
  9
$PROXYGRAPHICS
 70
    1
  9
$MEASUREMENT
 70
    1
  9
$CELWEIGHT
370
   -1
  9
$ENDCAPS
280
    0
  9
$JOINSTYLE
280
    0
  9
$LWDISPLAY
290
    0
  9
$INSUNITS
 70
    4
  9
$HYPERLINKBASE
  1

  9
$STYLESHEET
  1

  9
$XEDIT
290
    1
  9
$CEPSNTYPE
380
    0
  9
$PSTYLEMODE
290
    1
  9
$EXTNAMES
290
    1
  9
$PSVPSCALE
 40
1
  9
$OLESTARTUP
290
    0
  9
$SORTENTS
280
  127
  9
$INDEXCTL
280
    0
  9
$HIDETEXT
280
    1
  9
$XCLIPFRAME
290
    0
  9
$HALOGAP
280
    0
  9
$OBSCOLOR
 70
  257
  9
$OBSLTYPE
280
    0
  9
$INTERSECTIONDISPLAY
280
    0
  9
$INTERSECTIONCOLOR
 70
  257
  9
$DIMASSOC
280
    1
  9
$PROJECTNAME
  1

  9
$CAMERADISPLAY
290
    0
  9
$LENSLENGTH
 40
50
  9
$CAMERAHEIGHT
 40
0
  9
$STEPSPERSEC
 40
2
  9
$STEPSIZE
 40
50
  9
$3DDWFPREC
 40
2
  9
$PSOLWIDTH
 40
5
  9
$PSOLHEIGHT
 40
80
  9
$LOFTANG1
 40
1.570796326794897
  9
$LOFTANG2
 40
1.570796326794897
  9
$LOFTMAG1
 40
0
  9
$LOFTMAG2
 40
0
  9
$LOFTPARAM
 70
    7
  9
$LOFTNORMALS
280
    1
  9
$LATITUDE
 40
1
  9
$LONGITUDE
 40
1
  9
$NORTHDIRECTION
 40
0
  9
$TIMEZONE
 70
-8000
  9
$LIGHTGLYPHDISPLAY
280
    1
  9
$TILEMODELIGHTSYNCH
280
    1
  9
$SOLIDHIST
280
    1
  9
$SHOWHIST
280
    1
  9
$DWFFRAME
280
    2
  9
$DGNFRAME
280
    0
  9
$REALWORLDSCALE
290
    1
  9
$INTERFERECOLOR
 62
    1
  9
$CSHADOW
280
    0
  9
$SHADOWPLANELOCATION
 40
0
  0
ENDSEC
  0
SECTION
  2
CLASSES
  0
ENDSEC
  0
SECTION
  2
TABLES
  0
TABLE
  2
VPORT
  5
8
330
0
100
AcDbSymbolTable
 70
    1
  0
VPORT
  5
31
330
2
100
AcDbSymbolTableRecord
100
AcDbViewportTableRecord
  2
*ACTIVE
 70
    0
 10
0
 20
0
 11
1
 21
1
 12
340.5373969415405
 22
224.4660389217909
 13
0
 23
0
 14
10
 24
10
 15
10
 25
10
 16
0
 26
0
 36
1
 17
0
 27
0
 37
0
 40
619.0472427719978
 41
1.484126984126984
 42
50
 43
0
 44
0
 50
0
 51
0
 71
    0
 72
  100
 73
    1
 74
    3
 75
    0
 76
    1
 77
    0
 78
    0
281
    0
 65
    1
110
0
120
0
130
0
111
1
121
0
131
0
112
0
122
1
132
0
 79
    0
146
0
348
10020
 60
    7
 61
    5
292
1
282
    1
141
0
142
0
 63
  250
421
3358443
  0
ENDTAB
  0
TABLE
  2
LTYPE
  5
5
330
0
100
AcDbSymbolTable
 70
    4
  0
LTYPE
  5
14
330
5
100
AcDbSymbolTableRecord
100
AcDbLinetypeTableRecord
  2
ByBlock
 70
    0
  3

 72
   65
 73
    0
 40
0
  0
LTYPE
  5
15
330
5
100
AcDbSymbolTableRecord
100
AcDbLinetypeTableRecord
  2
ByLayer
 70
    0
  3

 72
   65
 73
    0
 40
0
  0
LTYPE
  5
16
330
5
100
AcDbSymbolTableRecord
100
AcDbLinetypeTableRecord
  2
Continuous
 70
    0
  3
Solid line
 72
   65
 73
    0
 40
0
  0
LTYPE
  5
32
330
5
100
AcDbSymbolTableRecord
100
AcDbLinetypeTableRecord
  2
DOT
 70
    0
  3
Dot . . . . . . . . . . . . . . . . . . . . . .
 72
   65
 73
    2
 40
6.35
 49
0
 74
    0
 49
-6.35
 74
    0
  0
LTYPE
  5
33
330
5
100
AcDbSymbolTableRecord
100
AcDbLinetypeTableRecord
  2
DOTTINY
 70
    0
  3
Dot (.15x) .....................................
 72
   65
 73
    2
 40
0.9525
 49
0
 74
    0
 49
-0.9525
 74
    0
  0
LTYPE
  5
34
330
5
100
AcDbSymbolTableRecord
100
AcDbLinetypeTableRecord
  2
DOT2
 70
    0
  3
Dot (.5x) .....................................
 72
   65
 73
    2
 40
3.175
 49
0
 74
    0
 49
-3.175
 74
    0
  0
LTYPE
  5
35
330
5
100
AcDbSymbolTableRecord
100
AcDbLinetypeTableRecord
  2
DOTX2
 70
    0
  3
Dot (2x) .  .  .  .  .  .  .  .  .  .  .  .  .
 72
   65
 73
    2
 40
12.7
 49
0
 74
    0
 49
-12.7
 74
    0
  0
LTYPE
  5
36
330
5
100
AcDbSymbolTableRecord
100
AcDbLinetypeTableRecord
  2
DASHED
 70
    0
  3
Dashed _ _ _ _ _ _ _ _ _ _ _ _ _ _ _ _ _
 72
   65
 73
    2
 40
19.05
 49
12.7
 74
    0
 49
-6.35
 74
    0
  0
LTYPE
  5
37
330
5
100
AcDbSymbolTableRecord
100
AcDbLinetypeTableRecord
  2
DASHEDTINY
 70
    0
  3
Dashed (.15x) _ _ _ _ _ _ _ _ _ _ _ _ _ _ _ _ _
 72
   65
 73
    2
 40
2.8575
 49
1.905
 74
    0
 49
-0.9525
 74
    0
  0
LTYPE
  5
38
330
5
100
AcDbSymbolTableRecord
100
AcDbLinetypeTableRecord
  2
DASHED2
 70
    0
  3
Dashed (.5x) _ _ _ _ _ _ _ _ _ _ _ _ _ _ _ _ _
 72
   65
 73
    2
 40
9.524999999999999
 49
6.35
 74
    0
 49
-3.175
 74
    0
  0
LTYPE
  5
39
330
5
100
AcDbSymbolTableRecord
100
AcDbLinetypeTableRecord
  2
DASHEDX2
 70
    0
  3
Dashed (2x) ____  ____  ____  ____  ____  ___
 72
   65
 73
    2
 40
38.09999999999999
 49
25.4
 74
    0
 49
-12.7
 74
    0
  0
LTYPE
  5
3A
330
5
100
AcDbSymbolTableRecord
100
AcDbLinetypeTableRecord
  2
DASHDOT
 70
    0
  3
Dash dot __ . __ . __ . __ . __ . __ . __ . __
 72
   65
 73
    4
 40
25.4
 49
12.7
 74
    0
 49
-6.35
 74
    0
 49
0
 74
    0
 49
-6.35
 74
    0
  0
LTYPE
  5
3B
330
5
100
AcDbSymbolTableRecord
100
AcDbLinetypeTableRecord
  2
DASHDOTTINY
 70
    0
  3
Dash dot (.15x) _._._._._._._._._._._._._._._.
 72
   65
 73
    4
 40
3.81
 49
1.905
 74
    0
 49
-0.9525
 74
    0
 49
0
 74
    0
 49
-0.9525
 74
    0
  0
LTYPE
  5
3C
330
5
100
AcDbSymbolTableRecord
100
AcDbLinetypeTableRecord
  2
DASHDOT2
 70
    0
  3
Dash dot (.5x) _._._._._._._._._._._._._._._.
 72
   65
 73
    4
 40
12.7
 49
6.35
 74
    0
 49
-3.175
 74
    0
 49
0
 74
    0
 49
-3.175
 74
    0
  0
LTYPE
  5
3D
330
5
100
AcDbSymbolTableRecord
100
AcDbLinetypeTableRecord
  2
DASHDOTX2
 70
    0
  3
Dash dot (2x) ____  .  ____  .  ____  .  ___
 72
   65
 73
    4
 40
50.8
 49
25.4
 74
    0
 49
-12.7
 74
    0
 49
0
 74
    0
 49
-12.7
 74
    0
  0
LTYPE
  5
3E
330
5
100
AcDbSymbolTableRecord
100
AcDbLinetypeTableRecord
  2
DIVIDE
 70
    0
  3
Divide ____ . . ____ . . ____ . . ____ . . ____
 72
   65
 73
    6
 40
31.75
 49
12.7
 74
    0
 49
-6.35
 74
    0
 49
0
 74
    0
 49
-6.35
 74
    0
 49
0
 74
    0
 49
-6.35
 74
    0
  0
LTYPE
  5
3F
330
5
100
AcDbSymbolTableRecord
100
AcDbLinetypeTableRecord
  2
DIVIDETINY
 70
    0
  3
Divide (.15x) __..__..__..__..__..__..__..__.._
 72
   65
 73
    6
 40
4.7625
 49
1.905
 74
    0
 49
-0.9525
 74
    0
 49
0
 74
    0
 49
-0.9525
 74
    0
 49
0
 74
    0
 49
-0.9525
 74
    0
  0
LTYPE
  5
40
330
5
100
AcDbSymbolTableRecord
100
AcDbLinetypeTableRecord
  2
DIVIDE2
 70
    0
  3
Divide (.5x) __..__..__..__..__..__..__..__.._
 72
   65
 73
    6
 40
15.875
 49
6.35
 74
    0
 49
-3.175
 74
    0
 49
0
 74
    0
 49
-3.175
 74
    0
 49
0
 74
    0
 49
-3.175
 74
    0
  0
LTYPE
  5
41
330
5
100
AcDbSymbolTableRecord
100
AcDbLinetypeTableRecord
  2
DIVIDEX2
 70
    0
  3
Divide (2x) ________  .  .  ________  .  .  _
 72
   65
 73
    6
 40
63.5
 49
25.4
 74
    0
 49
-12.7
 74
    0
 49
0
 74
    0
 49
-12.7
 74
    0
 49
0
 74
    0
 49
-12.7
 74
    0
  0
LTYPE
  5
42
330
5
100
AcDbSymbolTableRecord
100
AcDbLinetypeTableRecord
  2
BORDER
 70
    0
  3
Border __ __ . __ __ . __ __ . __ __ . __ __ .
 72
   65
 73
    6
 40
44.45
 49
12.7
 74
    0
 49
-6.35
 74
    0
 49
12.7
 74
    0
 49
-6.35
 74
    0
 49
0
 74
    0
 49
-6.35
 74
    0
  0
LTYPE
  5
43
330
5
100
AcDbSymbolTableRecord
100
AcDbLinetypeTableRecord
  2
BORDERTINY
 70
    0
  3
Border (.15x) __.__.__.__.__.__.__.__.__.__.__.
 72
   65
 73
    6
 40
6.6675
 49
1.905
 74
    0
 49
-0.9525
 74
    0
 49
1.905
 74
    0
 49
-0.9525
 74
    0
 49
0
 74
    0
 49
-0.9525
 74
    0
  0
LTYPE
  5
44
330
5
100
AcDbSymbolTableRecord
100
AcDbLinetypeTableRecord
  2
BORDER2
 70
    0
  3
Border (.5x) __.__.__.__.__.__.__.__.__.__.__.
 72
   65
 73
    6
 40
22.225
 49
6.35
 74
    0
 49
-3.175
 74
    0
 49
6.35
 74
    0
 49
-3.175
 74
    0
 49
0
 74
    0
 49
-3.175
 74
    0
  0
LTYPE
  5
45
330
5
100
AcDbSymbolTableRecord
100
AcDbLinetypeTableRecord
  2
BORDERX2
 70
    0
  3
Border (2x) ____  ____  .  ____  ____  .  ___
 72
   65
 73
    6
 40
88.89999999999999
 49
25.4
 74
    0
 49
-12.7
 74
    0
 49
25.4
 74
    0
 49
-12.7
 74
    0
 49
0
 74
    0
 49
-12.7
 74
    0
  0
LTYPE
  5
46
330
5
100
AcDbSymbolTableRecord
100
AcDbLinetypeTableRecord
  2
CENTER
 70
    0
  3
Center ____ _ ____ _ ____ _ ____ _ ____ _ ____
 72
   65
 73
    4
 40
50.8
 49
31.75
 74
    0
 49
-6.35
 74
    0
 49
6.35
 74
    0
 49
-6.35
 74
    0
  0
LTYPE
  5
47
330
5
100
AcDbSymbolTableRecord
100
AcDbLinetypeTableRecord
  2
CENTERTINY
 70
    0
  3
Center (.15x) ___ _ ___ _ ___ _ ___ _ ___ _ ___
 72
   65
 73
    4
 40
7.62
 49
4.7625
 74
    0
 49
-0.9525
 74
    0
 49
0.9525
 74
    0
 49
-0.9525
 74
    0
  0
LTYPE
  5
48
330
5
100
AcDbSymbolTableRecord
100
AcDbLinetypeTableRecord
  2
CENTER2
 70
    0
  3
Center (.5x) ___ _ ___ _ ___ _ ___ _ ___ _ ___
 72
   65
 73
    4
 40
28.575
 49
19.05
 74
    0
 49
-3.175
 74
    0
 49
3.175
 74
    0
 49
-3.175
 74
    0
  0
LTYPE
  5
49
330
5
100
AcDbSymbolTableRecord
100
AcDbLinetypeTableRecord
  2
CENTERX2
 70
    0
  3
Center (2x) ________  __  ________  __  _____
 72
   65
 73
    4
 40
101.6
 49
63.5
 74
    0
 49
-12.7
 74
    0
 49
12.7
 74
    0
 49
-12.7
 74
    0
  0
ENDTAB
  0
TABLE
  2
LAYER
  5
2
330
0
100
AcDbSymbolTable
 70
    1
  0
LAYER
  5
10
330
2
100
AcDbSymbolTableRecord
100
AcDbLayerTableRecord
  2
0
 70
    0
 62
    7
  6
CONTINUOUS
370
    0
390
F
  0
LAYER
  5
4A
330
2
100
AcDbSymbolTableRecord
100
AcDbLayerTableRecord
  2
1
 70
    0
 62
    7
  6
CONTINUOUS
370
   -3
390
F
  0
LAYER
  5
4B
330
2
100
AcDbSymbolTableRecord
100
AcDbLayerTableRecord
  2
2
 70
    0
 62
    7
  6
CONTINUOUS
370
   -3
390
F
  0
LAYER
  5
4C
330
2
100
AcDbSymbolTableRecord
100
AcDbLayerTableRecord
  2
3
 70
    0
 62
    7
  6
CONTINUOUS
370
   -3
390
F
  0
LAYER
  5
4D
330
2
100
AcDbSymbolTableRecord
100
AcDbLayerTableRecord
  2
4
 70
    0
 62
    7
  6
CONTINUOUS
370
   -3
390
F
  0
LAYER
  5
4E
330
2
100
AcDbSymbolTableRecord
100
AcDbLayerTableRecord
  2
5
 70
    0
 62
    7
  6
CONTINUOUS
370
   -3
390
F
  0
ENDTAB
  0
TABLE
  2
STYLE
  5
3
330
0
100
AcDbSymbolTable
 70
    3
  0
STYLE
  5
4F
330
2
100
AcDbSymbolTableRecord
100
AcDbTextStyleTableRecord
  2
Standard
 70
    0
 40
0
 41
1
 50
0
 71
    0
 42
1
  3
txt
  4

  0
ENDTAB
  0
TABLE
  2
VIEW
  5
6
330
0
100
AcDbSymbolTable
 70
    0
  0
ENDTAB
  0
TABLE
  2
UCS
  5
7
330
0
100
AcDbSymbolTable
 70
    0
  0
ENDTAB
  0
TABLE
  2
APPID
  5
9
330
0
100
AcDbSymbolTable
 70
    1
  0
APPID
  5
12
330
9
100
AcDbSymbolTableRecord
100
AcDbRegAppTableRecord
  2
ACAD
 70
    0
  0
APPID
  5
50
330
9
100
AcDbSymbolTableRecord
100
AcDbRegAppTableRecord
  2
LibreCad
 70
    0
  0
ENDTAB
  0
TABLE
  2
DIMSTYLE
  5
A
330
0
100
AcDbSymbolTable
 70
    1
100
AcDbDimStyleTable
 71
    1
  0
DIMSTYLE
105
51
330
A
100
AcDbSymbolTableRecord
100
AcDbDimStyleTableRecord
  2
Standard
 70
    0
 40
1
 41
2.5
 42
0.625
 43
0.38
 44
1.25
 45
0
 46
0
 47
0
 48
0
 49
1
140
2.5
141
0.09
142
2.5
143
25.4
144
1
145
0
146
1
147
0.625
148
0
 71
    0
 72
    0
 73
    0
 74
    1
 75
    0
 76
    0
 77
    0
 78
    1
 79
    0
170
    0
171
    2
172
    0
173
    0
174
    0
175
    0
176
    0
177
    0
178
    0
179
    0
271
    2
272
    4
273
    2
274
    2
275
    0
276
    0
277
    2
278
    0
279
    0
280
    0
281
    0
282
    0
283
    1
284
    0
285
    0
286
    0
288
    0
289
    3
340
standard
341

371
   -2
372
   -2
  0
ENDTAB
  0
TABLE
  2
BLOCK_RECORD
  5
1
330
0
100
AcDbSymbolTable
 70
    2
  0
BLOCK_RECORD
  5
1F
330
1
100
AcDbSymbolTableRecord
100
AcDbBlockTableRecord
  2
*Model_Space
 70
    0
280
    1
281
    0
  0
BLOCK_RECORD
  5
1E
330
1
100
AcDbSymbolTableRecord
100
AcDbBlockTableRecord
  2
*Paper_Space
 70
    0
280
    1
281
    0
  0
ENDTAB
  0
ENDSEC
  0
SECTION
  2
BLOCKS
  0
BLOCK
  5
20
330
1F
100
AcDbEntity
  8
0
100
AcDbBlockBegin
  2
*Model_Space
 70
    0
 10
0
 20
0
 30
0
  3
*Model_Space
  1

  0
ENDBLK
  5
21
330
1F
100
AcDbEntity
  8
0
100
AcDbBlockEnd
  0
BLOCK
  5
1C
330
1B
100
AcDbEntity
  8
0
100
AcDbBlockBegin
  2
*Paper_Space
 70
    0
 10
0
 20
0
 30
0
  3
*Paper_Space
  1

  0
ENDBLK
  5
1D
330
1F
100
AcDbEntity
  8
0
100
AcDbBlockEnd
  0
ENDSEC
  0
SECTION
  2
ENTITIES
  0
LINE
  5
52
100
AcDbEntity
  8
1
  6
ByLayer
 62
  256
370
   -1
100
AcDbLine
 10
-32.272955
 20
-2.80416
 11
-31.858259
 21
-0.946919
  0
LINE
  5
53
100
AcDbEntity
  8
1
  6
ByLayer
 62
  256
370
   -1
100
AcDbLine
 10
-31.858259
 20
-0.946919
 11
-32.970824
 21
0.547005
  0
LINE
  5
54
100
AcDbEntity
  8
1
  6
ByLayer
 62
  256
370
   -1
100
AcDbLine
 10
-32.970824
 20
0.547005
 11
-38.123394
 21
5.986844
  0
LINE
  5
55
100
AcDbEntity
  8
1
  6
ByLayer
 62
  256
370
   -1
100
AcDbLine
 10
-38.123394
 20
5.986844
 11
-39.755809
 21
8.005083000000001
  0
LINE
  5
56
100
AcDbEntity
  8
1
  6
ByLayer
 62
  256
370
   -1
100
AcDbLine
 10
-39.755809
 20
8.005083000000001
 11
-40.835783
 21
6.827953
  0
LINE
  5
57
100
AcDbEntity
  8
1
  6
ByLayer
 62
  256
370
   -1
100
AcDbLine
 10
-40.835783
 20
6.827953
 11
-41.38841
 21
5.961774
  0
LINE
  5
58
100
AcDbEntity
  8
1
  6
ByLayer
 62
  256
370
   -1
100
AcDbLine
 10
-41.38841
 20
5.961774
 11
-40.74386
 21
1.91385
  0
LINE
  5
59
100
AcDbEntity
  8
1
  6
ByLayer
 62
  256
370
   -1
100
AcDbLine
 10
-40.74386
 20
1.91385
 11
-37.005491
 21
-2.032942
  0
LINE
  5
5A
100
AcDbEntity
  8
1
  6
ByLayer
 62
  256
370
   -1
100
AcDbLine
 10
-37.005491
 20
-2.032942
 11
-33.198537
 21
-2.595051
  0
LINE
  5
5B
100
AcDbEntity
  8
1
  6
ByLayer
 62
  256
370
   -1
100
AcDbLine
 10
-33.198537
 20
-2.595051
 11
-32.272955
 21
-2.80416
  0
LINE
  5
5C
100
AcDbEntity
  8
2
  6
ByLayer
 62
  256
370
   -1
100
AcDbLine
 10
-11.826788
 20
-13.175758
 11
-12.926105
 21
-7.017193
  0
LINE
  5
5D
100
AcDbEntity
  8
2
  6
ByLayer
 62
  256
370
   -1
100
AcDbLine
 10
-12.926105
 20
-7.017193
 11
-11.411987
 21
-4.567299
  0
LINE
  5
5E
100
AcDbEntity
  8
2
  6
ByLayer
 62
  256
370
   -1
100
AcDbLine
 10
-11.411987
 20
-4.567299
 11
-6.083581
 21
-1.944436
  0
LINE
  5
5F
100
AcDbEntity
  8
2
  6
ByLayer
 62
  256
370
   -1
100
AcDbLine
 10
-6.083581
 20
-1.944436
 11
1.065625
 21
1.724217
  0
LINE
  5
60
100
AcDbEntity
  8
2
  6
ByLayer
 62
  256
370
   -1
100
AcDbLine
 10
1.065625
 20
1.724217
 11
-0.718278
 21
-8.503003
  0
LINE
  5
61
100
AcDbEntity
  8
2
  6
ByLayer
 62
  256
370
   -1
100
AcDbLine
 10
-0.718278
 20
-8.503003
 11
-2.986997
 21
-12.179333
  0
LINE
  5
62
100
AcDbEntity
  8
2
  6
ByLayer
 62
  256
370
   -1
100
AcDbLine
 10
-2.986997
 20
-12.179333
 11
-4.793331
 21
-15.102044
  0
LINE
  5
63
100
AcDbEntity
  8
2
  6
ByLayer
 62
  256
370
   -1
100
AcDbLine
 10
-4.793331
 20
-15.102044
 11
-3.831715
 21
-19.560969
  0
LINE
  5
64
100
AcDbEntity
  8
2
  6
ByLayer
 62
  256
370
   -1
100
AcDbLine
 10
-3.831715
 20
-19.560969
 11
-0.534446
 21
-23.807377
  0
LINE
  5
65
100
AcDbEntity
  8
2
  6
ByLayer
 62
  256
370
   -1
100
AcDbLine
 10
-0.534446
 20
-23.807377
 11
2.445768
 21
-24.287564
  0
LINE
  5
66
100
AcDbEntity
  8
2
  6
ByLayer
 62
  256
370
   -1
100
AcDbLine
 10
2.445768
 20
-24.287564
 11
4.667561
 21
-29.283691
  0
LINE
  5
67
100
AcDbEntity
  8
2
  6
ByLayer
 62
  256
370
   -1
100
AcDbLine
 10
4.667561
 20
-29.283691
 11
5.487013
 21
-29.713385
  0
LINE
  5
68
100
AcDbEntity
  8
2
  6
ByLayer
 62
  256
370
   -1
100
AcDbLine
 10
5.487013
 20
-29.713385
 11
11.918587
 21
-30.063782
  0
LINE
  5
69
100
AcDbEntity
  8
2
  6
ByLayer
 62
  256
370
   -1
100
AcDbLine
 10
11.918587
 20
-30.063782
 11
12.972936
 21
-30.29703
  0
LINE
  5
6A
100
AcDbEntity
  8
2
  6
ByLayer
 62
  256
370
   -1
100
AcDbLine
 10
12.972936
 20
-30.29703
 11
17.506373
 21
-31.513817
  0
LINE
  5
6B
100
AcDbEntity
  8
2
  6
ByLayer
 62
  256
370
   -1
100
AcDbLine
 10
17.506373
 20
-31.513817
 11
19.352071
 21
-31.312309
  0
LINE
  5
6C
100
AcDbEntity
  8
2
  6
ByLayer
 62
  256
370
   -1
100
AcDbLine
 10
19.352071
 20
-31.312309
 11
22.601221
 21
-33.475247
  0
LINE
  5
6D
100
AcDbEntity
  8
2
  6
ByLayer
 62
  256
370
   -1
100
AcDbLine
 10
22.601221
 20
-33.475247
 11
24.281314
 21
-34.235251
  0
LINE
  5
6E
100
AcDbEntity
  8
2
  6
ByLayer
 62
  256
370
   -1
100
AcDbLine
 10
24.281314
 20
-34.235251
 11
21.328632
 21
-37.411656
  0
LINE
  5
6F
100
AcDbEntity
  8
2
  6
ByLayer
 62
  256
370
   -1
100
AcDbLine
 10
21.328632
 20
-37.411656
 11
22.175502
 21
-38.6288
  0
LINE
  5
70
100
AcDbEntity
  8
2
  6
ByLayer
 62
  256
370
   -1
100
AcDbLine
 10
22.175502
 20
-38.6288
 11
18.022677
 21
-40.326603
  0
LINE
  5
71
100
AcDbEntity
  8
2
  6
ByLayer
 62
  256
370
   -1
100
AcDbLine
 10
18.022677
 20
-40.326603
 11
14.441917
 21
-40.745753
  0
LINE
  5
72
100
AcDbEntity
  8
2
  6
ByLayer
 62
  256
370
   -1
100
AcDbLine
 10
14.441917
 20
-40.745753
 11
14.852691
 21
-39.255575
  0
LINE
  5
73
100
AcDbEntity
  8
2
  6
ByLayer
 62
  256
370
   -1
100
AcDbLine
 10
14.852691
 20
-39.255575
 11
12.705492
 21
-36.354088
  0
LINE
  5
74
100
AcDbEntity
  8
2
  6
ByLayer
 62
  256
370
   -1
100
AcDbLine
 10
12.705492
 20
-36.354088
 11
11.718442
 21
-30.619066
  0
LINE
  5
75
100
AcDbEntity
  8
2
  6
ByLayer
 62
  256
370
   -1
100
AcDbLine
 10
11.718442
 20
-30.619066
 11
4.497045
 21
-32.140084
  0
LINE
  5
76
100
AcDbEntity
  8
2
  6
ByLayer
 62
  256
370
   -1
100
AcDbLine
 10
4.497045
 20
-32.140084
 11
2.789504
 21
-31.707479
  0
LINE
  5
77
100
AcDbEntity
  8
2
  6
ByLayer
 62
  256
370
   -1
100
AcDbLine
 10
2.789504
 20
-31.707479
 11
1.32797
 21
-30.957752
  0
LINE
  5
78
100
AcDbEntity
  8
2
  6
ByLayer
 62
  256
370
   -1
100
AcDbLine
 10
1.32797
 20
-30.957752
 11
-3.310754
 21
-28.147661
  0
LINE
  5
79
100
AcDbEntity
  8
2
  6
ByLayer
 62
  256
370
   -1
100
AcDbLine
 10
-3.310754
 20
-28.147661
 11
-7.407663
 21
-28.55066
  0
LINE
  5
7A
100
AcDbEntity
  8
2
  6
ByLayer
 62
  256
370
   -1
100
AcDbLine
 10
-7.407663
 20
-28.55066
 11
-10.373571
 21
-22.579347
  0
LINE
  5
7B
100
AcDbEntity
  8
2
  6
ByLayer
 62
  256
370
   -1
100
AcDbLine
 10
-10.373571
 20
-22.579347
 11
-11.299968
 21
-18.283732
  0
LINE
  5
7C
100
AcDbEntity
  8
2
  6
ByLayer
 62
  256
370
   -1
100
AcDbLine
 10
-11.299968
 20
-18.283732
 11
-11.826788
 21
-13.175758
  0
LINE
  5
7D
100
AcDbEntity
  8
3
  6
ByLayer
 62
  256
370
   -1
100
AcDbLine
 10
-45.521261
 20
-3.34804
 11
-44.609643
 21
-3.662659
  0
LINE
  5
7E
100
AcDbEntity
  8
3
  6
ByLayer
 62
  256
370
   -1
100
AcDbLine
 10
-44.609643
 20
-3.662659
 11
-45.362287
 21
-4.431124
  0
LINE
  5
7F
100
AcDbEntity
  8
3
  6
ByLayer
 62
  256
370
   -1
100
AcDbLine
 10
-45.362287
 20
-4.431124
 11
-45.472048
 21
-4.680696
  0
LINE
  5
80
100
AcDbEntity
  8
3
  6
ByLayer
 62
  256
370
   -1
100
AcDbLine
 10
-45.472048
 20
-4.680696
 11
-44.934772
 21
-11.358683
  0
LINE
  5
81
100
AcDbEntity
  8
3
  6
ByLayer
 62
  256
370
   -1
100
AcDbLine
 10
-44.934772
 20
-11.358683
 11
-45.512387
 21
-12.351516
  0
LINE
  5
82
100
AcDbEntity
  8
3
  6
ByLayer
 62
  256
370
   -1
100
AcDbLine
 10
-45.512387
 20
-12.351516
 11
-45.950838
 21
-14.679706
  0
LINE
  5
83
100
AcDbEntity
  8
3
  6
ByLayer
 62
  256
370
   -1
100
AcDbLine
 10
-45.950838
 20
-14.679706
 11
-46.295858
 21
-15.694964
  0
LINE
  5
84
100
AcDbEntity
  8
3
  6
ByLayer
 62
  256
370
   -1
100
AcDbLine
 10
-46.295858
 20
-15.694964
 11
-47.237208
 21
-13.564892
  0
LINE
  5
85
100
AcDbEntity
  8
3
  6
ByLayer
 62
  256
370
   -1
100
AcDbLine
 10
-47.237208
 20
-13.564892
 11
-48.599266
 21
-10.629214
  0
LINE
  5
86
100
AcDbEntity
  8
3
  6
ByLayer
 62
  256
370
   -1
100
AcDbLine
 10
-48.599266
 20
-10.629214
 11
-48.63295
 21
-10.695114
  0
LINE
  5
87
100
AcDbEntity
  8
3
  6
ByLayer
 62
  256
370
   -1
100
AcDbLine
 10
-48.63295
 20
-10.695114
 11
-48.63295
 21
-10.695114
  0
LINE
  5
88
100
AcDbEntity
  8
3
  6
ByLayer
 62
  256
370
   -1
100
AcDbLine
 10
-48.63295
 20
-10.695114
 11
-48.190196
 21
-10.628279
  0
LINE
  5
89
100
AcDbEntity
  8
3
  6
ByLayer
 62
  256
370
   -1
100
AcDbLine
 10
-48.190196
 20
-10.628279
 11
-46.879693
 21
-10.806815
  0
LINE
  5
8A
100
AcDbEntity
  8
3
  6
ByLayer
 62
  256
370
   -1
100
AcDbLine
 10
-46.879693
 20
-10.806815
 11
-45.623157
 21
-10.323585
  0
LINE
  5
8B
100
AcDbEntity
  8
3
  6
ByLayer
 62
  256
370
   -1
100
AcDbLine
 10
-45.623157
 20
-10.323585
 11
-45.723606
 21
-7.033696
  0
LINE
  5
8C
100
AcDbEntity
  8
3
  6
ByLayer
 62
  256
370
   -1
100
AcDbLine
 10
-45.723606
 20
-7.033696
 11
-47.361956
 21
-4.002405
  0
LINE
  5
8D
100
AcDbEntity
  8
3
  6
ByLayer
 62
  256
370
   -1
100
AcDbLine
 10
-47.361956
 20
-4.002405
 11
-48.189632
 21
-0.393114
  0
LINE
  5
8E
100
AcDbEntity
  8
3
  6
ByLayer
 62
  256
370
   -1
100
AcDbLine
 10
-48.189632
 20
-0.393114
 11
-47.454933
 21
6.866377
  0
LINE
  5
8F
100
AcDbEntity
  8
3
  6
ByLayer
 62
  256
370
   -1
100
AcDbLine
 10
-47.454933
 20
6.866377
 11
-46.432711
 21
9.544672
  0
LINE
  5
90
100
AcDbEntity
  8
3
  6
ByLayer
 62
  256
370
   -1
100
AcDbLine
 10
-46.432711
 20
9.544672
 11
-45.534505
 21
16.797047
  0
LINE
  5
91
100
AcDbEntity
  8
3
  6
ByLayer
 62
  256
370
   -1
100
AcDbLine
 10
-45.534505
 20
16.797047
 11
-48.225301
 21
10.651214
  0
LINE
  5
92
100
AcDbEntity
  8
3
  6
ByLayer
 62
  256
370
   -1
100
AcDbLine
 10
-48.225301
 20
10.651214
 11
-48.875134
 21
7.750713
  0
LINE
  5
93
100
AcDbEntity
  8
3
  6
ByLayer
 62
  256
370
   -1
100
AcDbLine
 10
-48.875134
 20
7.750713
 11
-49.761349
 21
2.820014
  0
LINE
  5
94
100
AcDbEntity
  8
3
  6
ByLayer
 62
  256
370
   -1
100
AcDbLine
 10
-49.761349
 20
2.820014
 11
-49.652743
 21
0.700949
  0
LINE
  5
95
100
AcDbEntity
  8
3
  6
ByLayer
 62
  256
370
   -1
100
AcDbLine
 10
-49.652743
 20
0.700949
 11
-48.984743
 21
1.474902
  0
LINE
  5
96
100
AcDbEntity
  8
3
  6
ByLayer
 62
  256
370
   -1
100
AcDbLine
 10
-48.984743
 20
1.474902
 11
-48.518327
 21
1.046902
  0
LINE
  5
97
100
AcDbEntity
  8
3
  6
ByLayer
 62
  256
370
   -1
100
AcDbLine
 10
-48.518327
 20
1.046902
 11
-45.717262
 21
-3.678116
  0
LINE
  5
98
100
AcDbEntity
  8
3
  6
ByLayer
 62
  256
370
   -1
100
AcDbLine
 10
-45.717262
 20
-3.678116
 11
-45.521261
 21
-3.34804
  0
LINE
  5
99
100
AcDbEntity
  8
4
  6
ByLayer
 62
  256
370
   -1
100
AcDbLine
 10
-35.391896
 20
34.092667
 11
-31.770949
 21
37.516674
  0
LINE
  5
9A
100
AcDbEntity
  8
4
  6
ByLayer
 62
  256
370
   -1
100
AcDbLine
 10
-31.770949
 20
37.516674
 11
-30.267766
 21
38.288625
  0
LINE
  5
9B
100
AcDbEntity
  8
4
  6
ByLayer
 62
  256
370
   -1
100
AcDbLine
 10
-30.267766
 20
38.288625
 11
-30.246522
 21
37.795657
  0
LINE
  5
9C
100
AcDbEntity
  8
4
  6
ByLayer
 62
  256
370
   -1
100
AcDbLine
 10
-30.246522
 20
37.795657
 11
-24.069759
 21
38.945688
  0
LINE
  5
9D
100
AcDbEntity
  8
4
  6
ByLayer
 62
  256
370
   -1
100
AcDbLine
 10
-24.069759
 20
38.945688
 11
-21.852559
 21
39.487161
  0
LINE
  5
9E
100
AcDbEntity
  8
4
  6
ByLayer
 62
  256
370
   -1
100
AcDbLine
 10
-21.852559
 20
39.487161
 11
-21.318439
 21
38.335628
  0
LINE
  5
9F
100
AcDbEntity
  8
4
  6
ByLayer
 62
  256
370
   -1
100
AcDbLine
 10
-21.318439
 20
38.335628
 11
-22.521188
 21
36.440047
  0
LINE
  5
A0
100
AcDbEntity
  8
4
  6
ByLayer
 62
  256
370
   -1
100
AcDbLine
 10
-22.521188
 20
36.440047
 11
-25.723005
 21
33.10199
  0
LINE
  5
A1
100
AcDbEntity
  8
4
  6
ByLayer
 62
  256
370
   -1
100
AcDbLine
 10
-25.723005
 20
33.10199
 11
-31.128205
 21
30.680517
  0
LINE
  5
A2
100
AcDbEntity
  8
4
  6
ByLayer
 62
  256
370
   -1
100
AcDbLine
 10
-31.128205
 20
30.680517
 11
-35.681681
 21
28.708251
  0
LINE
  5
A3
100
AcDbEntity
  8
4
  6
ByLayer
 62
  256
370
   -1
100
AcDbLine
 10
-35.681681
 20
28.708251
 11
-37.379907
 21
28.947252
  0
LINE
  5
A4
100
AcDbEntity
  8
4
  6
ByLayer
 62
  256
370
   -1
100
AcDbLine
 10
-37.379907
 20
28.947252
 11
-37.316859
 21
29.98078
  0
LINE
  5
A5
100
AcDbEntity
  8
4
  6
ByLayer
 62
  256
370
   -1
100
AcDbLine
 10
-37.316859
 20
29.98078
 11
-35.391896
 21
34.092667
  0
LINE
  5
A6
100
AcDbEntity
  8
5
  6
ByLayer
 62
  256
370
   -1
100
AcDbLine
 10
34.836508
 20
26.699112
 11
37.020777
 21
23.645623
  0
LINE
  5
A7
100
AcDbEntity
  8
5
  6
ByLayer
 62
  256
370
   -1
100
AcDbLine
 10
37.020777
 20
23.645623
 11
38.108244
 21
17.238016
  0
LINE
  5
A8
100
AcDbEntity
  8
5
  6
ByLayer
 62
  256
370
   -1
100
AcDbLine
 10
38.108244
 20
17.238016
 11
38.149141
 21
16.978521
  0
LINE
  5
A9
100
AcDbEntity
  8
5
  6
ByLayer
 62
  256
370
   -1
100
AcDbLine
 10
38.149141
 20
16.978521
 11
38.036928
 21
16.807318
  0
LINE
  5
AA
100
AcDbEntity
  8
5
  6
ByLayer
 62
  256
370
   -1
100
AcDbLine
 10
38.036928
 20
16.807318
 11
32.91818
 21
14.199998
  0
LINE
  5
AB
100
AcDbEntity
  8
5
  6
ByLayer
 62
  256
370
   -1
100
AcDbLine
 10
32.91818
 20
14.199998
 11
32.571547
 21
13.986629
  0
LINE
  5
AC
100
AcDbEntity
  8
5
  6
ByLayer
 62
  256
370
   -1
100
AcDbLine
 10
32.571547
 20
13.986629
 11
30.908155
 21
14.199987
  0
LINE
  5
AD
100
AcDbEntity
  8
5
  6
ByLayer
 62
  256
370
   -1
100
AcDbLine
 10
30.908155
 20
14.199987
 11
30.67561
 21
15.392379
  0
LINE
  5
AE
100
AcDbEntity
  8
5
  6
ByLayer
 62
  256
370
   -1
100
AcDbLine
 10
30.67561
 20
15.392379
 11
26.01408
 21
19.844891
  0
LINE
  5
AF
100
AcDbEntity
  8
5
  6
ByLayer
 62
  256
370
   -1
100
AcDbLine
 10
26.01408
 20
19.844891
 11
26.127804
 21
24.211937
  0
LINE
  5
B0
100
AcDbEntity
  8
5
  6
ByLayer
 62
  256
370
   -1
100
AcDbLine
 10
26.127804
 20
24.211937
 11
29.296915
 21
23.091989
  0
LINE
  5
B1
100
AcDbEntity
  8
5
  6
ByLayer
 62
  256
370
   -1
100
AcDbLine
 10
29.296915
 20
23.091989
 11
33.283942
 21
25.138119
  0
LINE
  5
B2
100
AcDbEntity
  8
5
  6
ByLayer
 62
  256
370
   -1
100
AcDbLine
 10
33.283942
 20
25.138119
 11
34.836508
 21
26.699112
  0
ENDSEC
  0
SECTION
  2
OBJECTS
  0
DICTIONARY
  5
C
330
0
100
AcDbDictionary
281
    1
  3
ACAD_GROUP
350
D
  0
DICTIONARY
  5
D
330
C
100
AcDbDictionary
281
    1
  0
ENDSEC
  0
EOF
